<mxfile host="app.diagrams.net" agent="Mozilla/5.0 (Macintosh; Intel Mac OS X 10_15_7) AppleWebKit/605.1.15 (KHTML, like Gecko) Version/18.3 Safari/605.1.15" version="26.0.16">
  <diagram name="Page-1" id="xhUdL5GtepGL1KT_vQ2W">
    <mxGraphModel grid="1" page="1" gridSize="10" guides="1" tooltips="1" connect="1" arrows="1" fold="1" pageScale="1" pageWidth="850" pageHeight="1100" math="0" shadow="0">
      <root>
        <mxCell id="0" />
        <mxCell id="1" parent="0" />
        <mxCell id="p5_dEWtqs7cyCDP3xFM8-1" value="" style="whiteSpace=wrap;html=1;aspect=fixed;" vertex="1" parent="1">
          <mxGeometry x="217.5" y="32.5" width="795" height="795" as="geometry" />
        </mxCell>
        <mxCell id="p5_dEWtqs7cyCDP3xFM8-2" value="Server Admin" style="shape=umlActor;verticalLabelPosition=bottom;verticalAlign=top;html=1;outlineConnect=0;" vertex="1" parent="1">
          <mxGeometry x="80" y="210" width="30" height="60" as="geometry" />
        </mxCell>
        <mxCell id="p5_dEWtqs7cyCDP3xFM8-3" value="&lt;div style=&quot;text-align: start;&quot;&gt;&lt;font face=&quot;monospace&quot;&gt;&lt;span style=&quot;caret-color: rgba(0, 0, 0, 0); color: rgba(0, 0, 0, 0); font-size: 0px;&quot;&gt;Verify&lt;/span&gt;&lt;/font&gt;&lt;/div&gt;" style="text;html=1;align=center;verticalAlign=middle;resizable=0;points=[];autosize=1;strokeColor=none;fillColor=none;" vertex="1" parent="1">
          <mxGeometry x="160" y="10" width="20" height="30" as="geometry" />
        </mxCell>
        <mxCell id="p5_dEWtqs7cyCDP3xFM8-4" value="Find Gamer server" style="ellipse;whiteSpace=wrap;html=1;" vertex="1" parent="1">
          <mxGeometry x="250" y="340" width="110" height="60" as="geometry" />
        </mxCell>
        <mxCell id="p5_dEWtqs7cyCDP3xFM8-14" value="Verify_Server_Online_Status" style="text;html=1;align=center;verticalAlign=middle;resizable=0;points=[];autosize=1;strokeColor=none;fillColor=none;" vertex="1" parent="1">
          <mxGeometry x="20" y="10" width="180" height="30" as="geometry" />
        </mxCell>
        <mxCell id="p5_dEWtqs7cyCDP3xFM8-15" value="Game server is Online" style="ellipse;whiteSpace=wrap;html=1;" vertex="1" parent="1">
          <mxGeometry x="550" y="190" width="110" height="60" as="geometry" />
        </mxCell>
        <mxCell id="p5_dEWtqs7cyCDP3xFM8-16" value="Game server is offline" style="ellipse;whiteSpace=wrap;html=1;" vertex="1" parent="1">
          <mxGeometry x="530" y="370" width="110" height="60" as="geometry" />
        </mxCell>
        <mxCell id="p5_dEWtqs7cyCDP3xFM8-18" value="Ping game server" style="ellipse;whiteSpace=wrap;html=1;" vertex="1" parent="1">
          <mxGeometry x="410" y="290" width="110" height="60" as="geometry" />
        </mxCell>
        <mxCell id="p5_dEWtqs7cyCDP3xFM8-20" value="Join game" style="ellipse;whiteSpace=wrap;html=1;" vertex="1" parent="1">
          <mxGeometry x="670" y="80" width="110" height="60" as="geometry" />
        </mxCell>
        <mxCell id="p5_dEWtqs7cyCDP3xFM8-21" value="Show error message" style="ellipse;whiteSpace=wrap;html=1;" vertex="1" parent="1">
          <mxGeometry x="680" y="440" width="110" height="60" as="geometry" />
        </mxCell>
        <mxCell id="p5_dEWtqs7cyCDP3xFM8-23" value="Player" style="shape=umlActor;verticalLabelPosition=bottom;verticalAlign=top;html=1;outlineConnect=0;" vertex="1" parent="1">
          <mxGeometry x="1080" y="590" width="30" height="60" as="geometry" />
        </mxCell>
        <mxCell id="p5_dEWtqs7cyCDP3xFM8-24" value="Try again&amp;nbsp;" style="ellipse;whiteSpace=wrap;html=1;" vertex="1" parent="1">
          <mxGeometry x="540" y="540" width="110" height="60" as="geometry" />
        </mxCell>
      </root>
    </mxGraphModel>
  </diagram>
</mxfile>
